<svg width="19" height="18" viewBox="0 0 19 18" fill="none" xmlns="http://www.w3.org/2000/svg">
<g clip-path="url(#clip0_18_13)">
<path fill-rule="evenodd" clip-rule="evenodd" d="M13.3351 16.402C13.4775 16.402 13.6141 16.3454 13.7148 16.2447C13.8155 16.144 13.8721 16.0074 13.8721 15.8649V3.19777L17.2513 6.57805C17.3522 6.67889 17.4889 6.73555 17.6316 6.73555C17.7742 6.73555 17.911 6.67889 18.0118 6.57805C18.1126 6.4772 18.1693 6.34043 18.1693 6.19781C18.1693 6.05519 18.1126 5.91841 18.0118 5.81757L13.7153 1.52106C13.6654 1.47105 13.6061 1.43137 13.5409 1.40429C13.4756 1.37722 13.4057 1.36328 13.3351 1.36328C13.2644 1.36328 13.1945 1.37722 13.1292 1.40429C13.064 1.43137 13.0047 1.47105 12.9548 1.52106L8.65832 5.81757C8.55747 5.91841 8.50081 6.05519 8.50081 6.19781C8.50081 6.34043 8.55747 6.4772 8.65832 6.57805C8.75916 6.67889 8.89594 6.73555 9.03856 6.73555C9.18117 6.73555 9.31795 6.67889 9.4188 6.57805L12.798 3.19777V15.8649C12.798 16.0074 12.8546 16.144 12.9553 16.2447C13.056 16.3454 13.1926 16.402 13.3351 16.402ZM5.81618 1.36424C5.95862 1.36424 6.09522 1.42082 6.19594 1.52154C6.29666 1.62226 6.35324 1.75887 6.35324 1.9013V14.5685L9.73244 11.1882C9.83329 11.0873 9.97006 11.0307 10.1127 11.0307C10.2553 11.0307 10.3921 11.0873 10.4929 11.1882C10.5938 11.289 10.6504 11.4258 10.6504 11.5684C10.6504 11.7111 10.5938 11.8478 10.4929 11.9487L6.19642 16.2452C6.14653 16.2952 6.08727 16.3349 6.02202 16.362C5.95677 16.389 5.88682 16.403 5.81618 16.403C5.74554 16.403 5.67559 16.389 5.61034 16.362C5.54509 16.3349 5.48583 16.2952 5.43594 16.2452L1.13943 11.9487C1.03859 11.8478 0.981934 11.7111 0.981934 11.5684C0.981934 11.4258 1.03859 11.289 1.13943 11.1882C1.24028 11.0873 1.37706 11.0307 1.51967 11.0307C1.66229 11.0307 1.79907 11.0873 1.89992 11.1882L5.27912 14.5685V1.9013C5.27912 1.75887 5.3357 1.62226 5.43642 1.52154C5.53714 1.42082 5.67374 1.36424 5.81618 1.36424Z" fill="#AEAEAE"/>
</g>
<defs>
<clipPath id="clip0_18_13">
<rect width="17.186" height="17.186" fill="white" transform="translate(0.982422 0.290161)"/>
</clipPath>
</defs>
</svg>
