<svg width="21" height="20" viewBox="0 0 21 20" fill="none" xmlns="http://www.w3.org/2000/svg">
<path d="M6.59364 12.3446C6.59364 13.4327 7.02587 14.4762 7.79524 15.2455C8.56461 16.0149 9.6081 16.4471 10.6961 16.4471C11.7842 16.4471 12.8277 16.0149 13.5971 15.2455C14.3664 14.4762 14.7987 13.4327 14.7987 12.3446C14.7987 10.9284 13.4366 8.21668 10.6961 4.42432C7.95567 8.21668 6.59364 10.9284 6.59364 12.3446ZM10.6961 1.6781C14.5254 6.67496 16.4397 10.2302 16.4397 12.3446C16.4397 13.8679 15.8345 15.3288 14.7574 16.4059C13.6803 17.483 12.2194 18.0881 10.6961 18.0881C9.17288 18.0881 7.71199 17.483 6.63487 16.4059C5.55776 15.3288 4.95264 13.8679 4.95264 12.3446C4.95264 10.2302 6.86687 6.67496 10.6961 1.6781Z" fill="#AEAEAE"/>
</svg>
