<svg width="16" height="16" viewBox="0 0 16 16" fill="none" xmlns="http://www.w3.org/2000/svg">
<g clip-path="url(#clip0_18_22)">
<path d="M12.3214 2.07704C11.6888 2.07704 11.0821 2.32834 10.6348 2.77567C10.1874 3.223 9.93613 3.8297 9.93613 4.46232C9.93613 4.58884 9.88587 4.71018 9.7964 4.79964C9.70694 4.88911 9.5856 4.93937 9.45908 4.93937C9.33255 4.93937 9.21121 4.88911 9.12175 4.79964C9.03228 4.71018 8.98202 4.58884 8.98202 4.46232C8.98202 3.80185 9.17787 3.15621 9.54481 2.60705C9.91175 2.05789 10.4333 1.62987 11.0435 1.37712C11.6537 1.12437 12.3251 1.05824 12.9729 1.18709C13.6207 1.31594 14.2157 1.63399 14.6827 2.10101C15.1497 2.56803 15.4678 3.16306 15.5966 3.81083C15.7255 4.45861 15.6594 5.13005 15.4066 5.74025C15.1539 6.35044 14.7258 6.87198 14.1767 7.23892C13.6275 7.60585 12.9819 7.80171 12.3214 7.80171H0.872075C0.745552 7.80171 0.624211 7.75144 0.534746 7.66198C0.445281 7.57251 0.39502 7.45117 0.39502 7.32465C0.39502 7.19813 0.445281 7.07679 0.534746 6.98732C0.624211 6.89786 0.745552 6.84759 0.872075 6.84759H12.3214C12.954 6.84759 13.5607 6.59629 14.0081 6.14896C14.4554 5.70164 14.7067 5.09493 14.7067 4.46232C14.7067 3.8297 14.4554 3.223 14.0081 2.77567C13.5607 2.32834 12.954 2.07704 12.3214 2.07704ZM5.64263 3.03115C5.38959 3.03115 5.1469 3.13167 4.96797 3.3106C4.78904 3.48953 4.68852 3.73221 4.68852 3.98526C4.68852 4.11178 4.63826 4.23312 4.54879 4.32259C4.45933 4.41205 4.33799 4.46232 4.21146 4.46232C4.08494 4.46232 3.9636 4.41205 3.87414 4.32259C3.78467 4.23312 3.73441 4.11178 3.73441 3.98526C3.73441 3.60785 3.84632 3.23891 4.056 2.92511C4.26568 2.6113 4.5637 2.36672 4.91239 2.22229C5.26107 2.07786 5.64475 2.04007 6.01491 2.1137C6.38507 2.18733 6.72508 2.36907 6.99195 2.63594C7.25882 2.90281 7.44056 3.24283 7.51419 3.61298C7.58782 3.98314 7.55003 4.36682 7.4056 4.71551C7.26117 5.06419 7.01659 5.36221 6.70278 5.57189C6.38898 5.78157 6.02004 5.89348 5.64263 5.89348H0.872075C0.745552 5.89348 0.624211 5.84322 0.534746 5.75376C0.445281 5.66429 0.39502 5.54295 0.39502 5.41643C0.39502 5.2899 0.445281 5.16856 0.534746 5.0791C0.624211 4.98963 0.745552 4.93937 0.872075 4.93937H5.64263C5.89568 4.93937 6.13836 4.83885 6.31729 4.65992C6.49622 4.48099 6.59674 4.23831 6.59674 3.98526C6.59674 3.73221 6.49622 3.48953 6.31729 3.3106C6.13836 3.13167 5.89568 3.03115 5.64263 3.03115ZM0.39502 9.23287C0.39502 9.10635 0.445281 8.98501 0.534746 8.89554C0.624211 8.80608 0.745552 8.75582 0.872075 8.75582H10.4533C11.0194 8.75582 11.5728 8.92369 12.0435 9.23821C12.5142 9.55272 12.8811 9.99976 13.0977 10.5228C13.3144 11.0458 13.371 11.6213 13.2606 12.1766C13.1502 12.7318 12.8775 13.2418 12.4772 13.6421C12.0769 14.0424 11.5669 14.315 11.0117 14.4255C10.4564 14.5359 9.88091 14.4792 9.35789 14.2626C8.83487 14.046 8.38783 13.6791 8.07332 13.2084C7.7588 12.7377 7.59093 12.1843 7.59093 11.6182C7.59093 11.4916 7.64119 11.3703 7.73065 11.2808C7.82012 11.1914 7.94146 11.1411 8.06798 11.1411C8.1945 11.1411 8.31585 11.1914 8.40531 11.2808C8.49478 11.3703 8.54504 11.4916 8.54504 11.6182C8.54504 11.9956 8.65695 12.3645 8.86663 12.6783C9.07631 12.9921 9.37433 13.2367 9.72301 13.3811C10.0717 13.5255 10.4554 13.5633 10.8255 13.4897C11.1957 13.4161 11.5357 13.2343 11.8026 12.9675C12.0694 12.7006 12.2512 12.3606 12.3248 11.9904C12.3984 11.6203 12.3607 11.2366 12.2162 10.8879C12.0718 10.5392 11.8272 10.2412 11.5134 10.0315C11.1996 9.82184 10.8307 9.70993 10.4533 9.70993H0.872075C0.745552 9.70993 0.624211 9.65967 0.534746 9.5702C0.445281 9.48074 0.39502 9.3594 0.39502 9.23287Z" fill="#AEAEAE"/>
</g>
<defs>
<clipPath id="clip0_18_22">
<rect width="15.2658" height="15.2658" fill="white" transform="translate(0.39502 0.168701)"/>
</clipPath>
</defs>
</svg>
